HIERARCHY
ROOT Hips
{
  OFFSET -35.4901 99.2528 17.4586
  CHANNELS 6 Xposition Yposition Zposition Zrotation Xrotation Yrotation
  JOINT LeftUpLeg
  {
    OFFSET 8.64259 1.95398 -2.38835
    CHANNELS 3 Zrotation Xrotation Yrotation
    JOINT LeftLeg
    {
      OFFSET 43.7702 0 0
      CHANNELS 3 Zrotation Xrotation Yrotation
      JOINT LeftFoot
      {
        OFFSET 40.6238 0 0
        CHANNELS 3 Zrotation Xrotation Yrotation
        JOINT LeftToeBase
        {
          OFFSET 12.7242 0 0
          CHANNELS 3 Zrotation Xrotation Yrotation
          End Site
          {
            OFFSET 0 0 0
          }
        }
      }
    }
  }
  JOINT RightUpLeg
  {
    OFFSET -8.2249 1.95398 -2.59336
    CHANNELS 3 Zrotation Xrotation Yrotation
    JOINT RightLeg
    {
      OFFSET 43.5653 0 0
      CHANNELS 3 Zrotation Xrotation Yrotation
      JOINT RightFoot
      {
        OFFSET 40.6238 0 0
        CHANNELS 3 Zrotation Xrotation Yrotation
        JOINT RightToeBase
        {
          OFFSET 12.7242 0 0
          CHANNELS 3 Zrotation Xrotation Yrotation
          End Site
          {
            OFFSET 0 0 0
          }
        }
      }
    }
  }
  JOINT Spine
  {
    OFFSET 0.165834 0.87714 6.61349
    CHANNELS 3 Zrotation Xrotation Yrotation
    JOINT Spine1
    {
      OFFSET 7.38963 1.71661e-005 0
      CHANNELS 3 Zrotation Xrotation Yrotation
      JOINT Spine2
      {
        OFFSET 11.9445 1.14441e-005 0
        CHANNELS 3 Zrotation Xrotation Yrotation
        JOINT Spine3
        {
          OFFSET 14.7254 4.19617e-005 0
          CHANNELS 3 Zrotation Xrotation Yrotation
          JOINT Spine4
          {
            OFFSET 10.9679 0 0
            CHANNELS 3 Zrotation Xrotation Yrotation
            JOINT RightShoulder
            {
              OFFSET 2.46616 -1.6653 3.69651
              CHANNELS 3 Zrotation Xrotation Yrotation
              JOINT RightArm
              {
                OFFSET 13.0012 0 0
                CHANNELS 3 Zrotation Xrotation Yrotation
                JOINT RightForeArm
                {
                  OFFSET 28.7848 1.52588e-005 0
                  CHANNELS 3 Zrotation Xrotation Yrotation
                  JOINT RightHand
                  {
                    OFFSET 26.5688 1.52588e-005 0
                    CHANNELS 3 Zrotation Xrotation Yrotation
                    End Site
                    {
                      OFFSET 0 0 0
                    }
                  }
                }
              }
            }
            JOINT LeftShoulder
            {
              OFFSET 2.38034 -1.29275 -3.7523
              CHANNELS 3 Zrotation Xrotation Yrotation
              JOINT LeftArm
              {
                OFFSET 16.3182 6.10351e-005 0
                CHANNELS 3 Zrotation Xrotation Yrotation
                JOINT LeftForeArm
                {
                  OFFSET 27.0901 0 0
                  CHANNELS 3 Zrotation Xrotation Yrotation
                  JOINT LeftHand
                  {
                    OFFSET 24.5451 1.52588e-005 0
                    CHANNELS 3 Zrotation Xrotation Yrotation
                    End Site
                    {
                      OFFSET 0 0 0
                    }
                  }
                }
              }
            }
            JOINT Neck
            {
              OFFSET 5.0226 -0.0266342 0
              CHANNELS 3 Zrotation Xrotation Yrotation
              JOINT Head
              {
                OFFSET 6.69364 2.86102e-005 0
                CHANNELS 3 Zrotation Xrotation Yrotation
                End Site
                {
                  OFFSET 0 0 0
                }
              }
            }
          }
        }
      }
    }
  }
}
MOTION
Frames:	12
Frame Time:	0.0416667
126.785 87.1992 135.089 -68.8561 -49.5807 -71.1736 -173.242 49.5387 109.484 -51.5632 32.2706 0.105511 71.199 5.07872 0.305712 38.6003 -0.254907 -0.541266 167.909 42.8947 71.3554 -58.9532 -2.59008 0.284206 80.2602 -9.67723 -1.26993 21.0657 -1.83979 5.06277 0.963228 9.15159 -90.0136 8.57259 1.91604 -0.148614 -3.09697 1.90765 -0.232833 -25.6431 1.87209 0.434313 -5.63046 1.87209 0.43432 84.95 -31.9485 -115.623 35.2445 10.8079 13.165 -42.8685 -34.4958 -65.8123 -41.8163 -0.570199 -8.13273 -87.3167 -43.6332 81.5945 -2.90282 23.5297 -52.4483 39.2843 -11.3273 -87.5121 4.54236 -0.83791 -16.693 34.4049 -1.5437 -9.32247 -5.01892 2.56448 2.38525 
124.13 85.4906 133.327 -74.4968 -45.5779 -76.2793 -171.765 47.3698 112.823 -54.926 30.138 0.867534 73.128 6.13831 0.194386 40.3419 -1.51727 2.03411 168.272 45.1036 65.8187 -59.0353 -1.74893 -0.349096 78.9796 -9.62038 -3.04884 18.6112 -1.51503 4.39371 0.738745 9.27171 -90.2523 8.33427 1.36315 -0.581272 -3.33615 1.33624 -0.640732 -25.8767 1.47483 -0.144637 -5.86409 1.47481 -0.144657 87.2146 -31.056 -111.754 25.1164 27.9953 23.1067 -34.5738 -31.2289 -62.6576 -46.1808 -0.352125 -7.46813 -87.4653 -42.441 81.1147 -7.63179 20.896 -53.5549 35.9362 -12.14 -90.331 2.53816 -0.724445 -19.0444 32.2685 0.333793 -11.1286 -4.95639 4.84689 5.12847 
120.953 83.3372 131.395 -79.6223 -40.0441 -80.4905 -170.118 43.7967 117.208 -57.1105 27.5367 1.92494 75.3219 6.96769 -2.77911 44.7767 -3.57945 6.62627 168.428 49.4524 62.072 -59.9077 2.01461 -0.0946341 79.0607 -9.80622 -2.70833 15.8222 -1.79692 5.03422 0.449225 9.29434 -90.4145 8.2866 0.714172 -0.861954 -3.38443 0.675557 -0.892555 -25.92 0.940207 -0.607468 -5.90732 0.940206 -0.607467 89.109 -29.4596 -108.734 12.0755 31.1746 31.9514 -23.2625 -27.8014 -55.2452 -46.1226 1.64767 -11.5862 -86.8357 -38.4697 81.3568 -13.0525 17.1268 -54.1994 35.3703 -12.8139 -93.0922 1.22551 -0.571443 -19.5297 30.968 3.04301 -13.1086 -7.23007 7.86097 8.28193 
116.302 82.2836 128.864 -82.7666 -32.2026 -84.1696 -166.557 36.6651 120.612 -53.217 24.4612 1.31245 75.4094 6.91202 -3.99896 47.7032 -4.73685 9.81925 169.478 54.8219 61.2106 -60.3395 -1.58818 0.353723 76.5091 -9.30648 -5.05241 16.1101 -1.82609 5.09343 0.298122 9.15097 -90.5221 8.57267 0.363826 -1.05486 -3.09868 0.317059 -1.06986 -25.6316 0.664024 -0.896777 -5.61891 0.664032 -0.896774 90.5019 -25.5355 -107.539 3.71018 27.9682 37.6078 -24.7485 -29.2357 -52.5494 -40.8874 2.30877 -14.8261 -86.1307 -35.5567 81.9918 -15.4836 13.2007 -51.4342 34.8112 -13.9283 -96.2794 -0.092974 -0.40662 -20.2469 28.3723 8.55564 -9.10152 -6.99862 11.301 8.31673 
109.786 83.081 125.379 -84.9754 -24.8277 -88.9299 -163.125 23.606 121.428 -40.3241 21.4883 0.723632 62.5419 2.04714 -7.2066 57.5481 -4.93985 12.2332 168.132 57.4103 63.1976 -59.9367 -8.47687 1.29363 74.2492 -8.00912 -4.43127 19.8149 -1.14455 3.57152 0.0263757 8.99393 -90.3454 8.88521 -0.101101 -0.676731 -2.7859 -0.130816 -0.671625 -25.3197 0.106972 -0.675829 -5.30701 0.106958 -0.675823 89.9617 -23.0687 -109.806 -0.433028 26.283 41.4436 -27.32 -29.6212 -55.6706 -39.9438 2.2104 -15.0006 -85.4386 -33.7803 82.8864 -14.9376 10.8567 -44.4024 32.3868 -14.0913 -97.5464 0.38601 -0.499812 -21.2465 25.2806 14.7404 -3.79287 -7.97408 15.0083 9.21358 
101.583 84.7949 120.833 -84.8545 -17.2444 -93.171 -163.546 7.73608 119.512 -24.1765 22.4521 3.05039 47.4715 -3.33207 -4.25679 54.9626 -3.44777 7.8908 163.968 57.3025 69.3134 -59.6474 -12.209 2.88271 68.1546 -4.45089 -0.0344463 25.1351 -1.15399 3.32537 -0.124282 8.57859 -90.0924 9.71611 -0.289492 -0.159448 -1.95482 -0.296234 -0.146558 -24.4901 -0.228187 -0.239085 -4.47742 -0.228186 -0.239081 90.1012 -22.8616 -109.601 -0.40519 26.5033 39.2564 -33.8179 -31.7159 -63.093 -41.2758 1.61227 -13.6194 -85.0249 -36.2889 84.1154 -9.40321 11.1443 -33.2192 29.5044 -14.1892 -97.055 0.569958 -0.531436 -21.4431 20.6968 20.5956 5.35859 -9.5689 17.8324 6.84965 
93.3082 85.6941 115.325 -82.0099 -9.60861 -94.2897 -169.499 3.65441 115.591 -31.1534 26.8156 10.0043 52.4694 -2.23607 5.54656 20.8963 1.66654 -1.84 160.255 54.2115 78.9745 -60.9046 -11.175 4.40675 73.9126 -7.24466 -0.784847 22.1795 -1.11722 3.40523 0.149762 8.13202 -90.2127 10.6103 0.200451 -0.439357 -1.06066 0.180927 -0.447762 -23.5956 0.323238 -0.358805 -3.58292 0.323221 -0.358812 89.3529 -24.6843 -110.353 1.03539 24.2451 32.8307 -31.3585 -28.7482 -62.5649 -42.6964 1.41832 -12.3105 -84.636 -38.0728 85.1074 -7.67882 15.4251 -24.928 30.0512 -13.9475 -93.9471 2.72126 -0.741099 -19.0169 17.3882 24.8859 12.5232 -9.87183 20.3503 6.22187 
86.8554 83.9053 109.807 -80.8139 -0.711179 -96.0611 -172.74 6.35043 111.039 -48.5615 20.7626 11.1504 60.2298 1.17484 7.26075 26.2926 4.15403 -6.76081 163.656 53.4312 84.3201 -68.4188 -10.0666 3.07181 85.6041 -12.6978 -2.15152 20.1794 -1.41532 4.13946 0.699302 8.13719 -90.2802 10.6036 1.26391 -0.670058 -1.067 1.23322 -0.725046 -23.6068 1.40686 -0.25915 -3.59413 1.40689 -0.259148 87.6115 -26.0919 -113.317 4.33401 24.7896 22.0064 -25.9529 -29.0649 -56.2414 -45.1704 1.6718 -12.1558 -84.0987 -44.0386 86.8657 -6.7707 18.8799 -16.0679 31.1069 -13.5227 -91.184 5.97827 -1.12931 -18.3755 16.3505 27.9991 16.4454 -8.31498 22.6377 5.76904 
80.6368 82.2796 103.915 -80.9546 7.45329 -95.1704 -174.468 14.6395 108.649 -69.3858 19.4029 10.711 66.6377 3.99873 8.80952 32.122 3.21625 -6.13127 165.321 48.6068 90.5407 -72.2577 -8.88003 2.72025 95.721 -16.4033 0.927954 17.5924 -1.95915 5.34395 1.39299 8.46246 -90.458 9.96239 2.56813 -1.11918 -1.70661 2.51642 -1.23118 -24.2616 2.78569 -0.295081 -4.24899 2.7857 -0.29508 86.1368 -26.301 -116.227 11.2132 30.6398 9.72 -25.3194 -28.1526 -56.1714 -40.9153 2.20563 -14.408 -83.1232 -50.7518 89.1483 -11.6861 15.5166 -5.2841 31.9118 -9.78922 -86.4638 11.0037 -1.3003 -14.6595 18.2691 30.605 18.2023 -9.59316 24.3492 6.64931 
74.2311 81.4814 98.129 -79.7284 11.5173 -96.46 -177.097 28.6936 103.83 -82.8118 8.74825 8.18767 72.544 6.75907 8.31969 30.4231 4.15166 -7.3652 164.869 43.1127 92.8379 -72.6648 -10.7729 3.1391 104.283 -20.0711 1.84104 14.929 -2.52447 6.45466 1.79711 8.558 -90.3298 9.77432 3.43305 -0.927041 -1.8925 3.38891 -1.07741 -24.4643 3.55272 0.148886 -4.45165 3.55275 0.148883 85.1559 -27.2909 -117.657 17.9047 31.2514 -3.85947 -26.5212 -27.2605 -60.0755 -40.5183 2.71205 -16.061 -81.2992 -52.7232 92.0097 -21.0644 5.8739 5.58974 31.6858 -2.18832 -78.1545 12.4349 -1.33285 -13.9217 19.3734 32.1702 19.8101 -8.58416 25.3645 5.72588 
67.2758 80.714 92.211 -79.4154 13.5138 -98.1929 -178.144 44.2926 97.2019 -89.9123 2.13096 6.36431 75.6427 8.02539 6.90577 29.4508 5.38362 -9.22725 165.221 35.1151 92.7994 -70.9479 -9.972 3.51353 114.087 -22.4255 5.83306 10.8596 -2.60907 6.53094 2.31571 8.59868 -90.1702 9.69281 4.53959 -0.693332 -1.97053 4.50466 -0.892857 -24.5684 4.53759 0.705939 -4.55579 4.53761 0.705946 85.5275 -25.0984 -118.136 17.4 23.6662 -13.6676 -28.3007 -28.4284 -67.1217 -42.3574 2.62526 -15.5455 -79.7101 -54.0024 94.3929 -23.7618 -0.389854 19.2423 33.1104 -0.660949 -77.3989 14.2078 -1.19084 -11.8864 16.8651 31.574 23.244 -4.90197 24.5384 2.89316 
59.036 80.7511 85.1508 -79.9196 16.7129 -100.33 -174.221 55.9158 88.3063 -89.0517 6.68784 4.29788 79.7041 9.68784 5.41521 24.3807 4.35193 -6.38729 167.862 23.2114 92.233 -64.3435 -7.50131 3.00158 119.885 -23.8437 7.99492 10.312 -3.18832 7.53279 3.229 8.72886 -89.7379 9.42614 6.55659 0.0293204 -2.22829 6.55149 -0.260544 -24.8873 6.24346 2.00628 -4.87471 6.24348 2.00629 87.4235 -20.4715 -116.869 12.6542 15.3997 -20.62 -32.7197 -22.8189 -70.8898 -38.594 2.95754 -17.9427 -79.2808 -50.8619 94.9242 -24.8944 5.19829 29.1233 31.5182 -2.62247 -77.2598 13.4074 -1.06135 -11.3748 15.6617 29.6521 24.084 -3.72535 22.6669 1.3534 
